<svg width="174" height="25" viewBox="0 0 174 25" fill="none" xmlns="http://www.w3.org/2000/svg">
<path d="M11.9984 0.00432595C5.67321 0.00432595 0.490163 4.90119 0.0358887 11.1088C1.5934 9.88025 3.5576 9.14485 5.69485 9.14485C10.7568 9.14485 14.8582 13.2458 14.8582 18.307V23.9998H23.9999V11.9999C23.9999 5.37271 18.6265 0 11.9984 0V0.00432595Z" fill="white"/>
<path d="M5.69357 12.6145C2.54826 12.6145 0 15.1625 0 18.3074V24.0002H11.3871V18.3074C11.3871 15.1625 8.83888 12.6145 5.69357 12.6145Z" fill="white"/>
<path d="M173.667 13.29V24H170.972V13.605C170.972 10.91 169.362 9.05501 166.737 9.05501C164.112 9.05501 162.257 10.945 162.257 13.605V24H159.562V6.95501H162.082V8.77501C163.342 7.37501 165.197 6.57001 167.332 6.57001C171.287 6.57001 173.667 9.26501 173.667 13.29Z" fill="url(#paint0_linear_933_5267)"/>
<path d="M154.967 16.3H141.492C141.807 19.66 144.397 21.9 147.757 21.9C149.682 21.9 151.432 21.13 152.972 19.59L154.547 21.41C152.762 23.265 150.417 24.385 147.722 24.385C142.647 24.385 138.692 20.5 138.692 15.495C138.692 10.56 142.542 6.57001 147.407 6.57001C151.817 6.57001 155.177 9.75501 155.177 14.27C155.177 14.935 155.107 15.6 154.967 16.3ZM141.597 13.92H152.412C152.377 10.875 150.172 9.02001 147.337 9.02001C144.502 9.02001 142.192 10.98 141.597 13.92Z" fill="url(#paint1_linear_933_5267)"/>
<path d="M112.508 12.45C112.403 5.83499 117.898 0.409987 124.513 0.514988C128.433 0.514988 131.793 2.26499 133.928 5.23999L131.863 6.84999C130.078 4.43499 127.593 3.03499 124.513 3.03499C119.263 2.92999 115.238 7.19999 115.343 12.415C115.238 17.7 119.333 22.04 124.653 21.935C128.013 21.935 130.778 20.325 132.353 17.805V14.69H124.478V12.24H135.083V18.4C134.068 20.22 132.598 21.69 130.708 22.775C128.853 23.86 126.788 24.385 124.513 24.385C117.898 24.49 112.403 19.065 112.508 12.45Z" fill="url(#paint2_linear_933_5267)"/>
<path d="M109.783 21.725V24C108.698 24.245 107.753 24.385 106.948 24.385C103.413 24.385 101.208 22.6 101.208 18.855V9.36999H98.3381V6.95499H101.208V2.29999H103.903V6.95499H109.223V9.36999H103.903V18.68C103.903 21.095 105.163 21.935 107.508 21.935C108.173 21.935 108.908 21.865 109.783 21.725Z" fill="white"/>
<path d="M82.9695 21.06L84.6845 19.275C86.3295 20.955 87.6595 21.9 89.5845 21.9C91.4395 21.9 92.8395 20.99 92.8395 19.485C92.8395 18.12 91.9645 17.595 89.8645 16.755L88.2195 16.055C85.3845 14.9 83.9845 13.605 83.9845 11.33C83.9845 8.35501 86.4695 6.57001 89.7245 6.57001C92.1045 6.57001 94.0295 7.58501 95.4295 9.26501L93.7845 10.945C92.6295 9.79001 91.1595 9.05501 89.5845 9.05501C87.9045 9.05501 86.7495 9.82501 86.7495 11.19C86.7495 12.275 87.4495 12.8 89.5145 13.675L91.0895 14.34C94.2745 15.705 95.6045 17.035 95.6045 19.38C95.6045 20.955 95.0095 22.215 93.8545 23.09C92.6995 23.965 91.2995 24.385 89.6195 24.385C86.7845 24.385 84.4745 23.02 82.9695 21.06Z" fill="white"/>
<path d="M79.6344 16.3H66.1594C66.4744 19.66 69.0644 21.9 72.4244 21.9C74.3494 21.9 76.0994 21.13 77.6394 19.59L79.2144 21.41C77.4294 23.265 75.0844 24.385 72.3894 24.385C67.3144 24.385 63.3594 20.5 63.3594 15.495C63.3594 10.56 67.2094 6.57001 72.0744 6.57001C76.4844 6.57001 79.8444 9.75501 79.8444 14.27C79.8444 14.935 79.7744 15.6 79.6344 16.3ZM66.2644 13.92H77.0794C77.0444 10.875 74.8394 9.02001 72.0044 9.02001C69.1694 9.02001 66.8594 10.98 66.2644 13.92Z" fill="white"/>
<path d="M55.8651 0.900014H58.5951V24.385H57.6151L42.9151 6.67501V24H40.1851V0.515015H41.1651L55.8651 18.26V0.900014Z" fill="white"/>
<defs>
<linearGradient id="paint0_linear_933_5267" x1="166.614" y1="6.57001" x2="166.614" y2="24" gradientUnits="userSpaceOnUse">
<stop stop-color="#49EC80"/>
<stop offset="1" stop-color="#349AD3"/>
</linearGradient>
<linearGradient id="paint1_linear_933_5267" x1="146.934" y1="6.57001" x2="146.934" y2="24.385" gradientUnits="userSpaceOnUse">
<stop stop-color="#49EC80"/>
<stop offset="1" stop-color="#349AD3"/>
</linearGradient>
<linearGradient id="paint2_linear_933_5267" x1="123.795" y1="0.513489" x2="123.795" y2="24.3865" gradientUnits="userSpaceOnUse">
<stop stop-color="#49EC80"/>
<stop offset="1" stop-color="#349AD3"/>
</linearGradient>
</defs>
</svg>
