<svg width="195" height="25" viewBox="0 0 195 25" fill="none" xmlns="http://www.w3.org/2000/svg">
<path d="M11.9984 0.504326C5.67321 0.504326 0.490163 5.40119 0.0358887 11.6088C1.5934 10.3802 3.5576 9.64485 5.69485 9.64485C10.7568 9.64485 14.8582 13.7458 14.8582 18.807V24.4998H23.9999V12.4999C23.9999 5.87271 18.6265 0.5 11.9984 0.5V0.504326Z" fill="white"/>
<path d="M5.69357 13.1145C2.54826 13.1145 0 15.6625 0 18.8074V24.5002H11.3871V18.8074C11.3871 15.6625 8.83888 13.1145 5.69357 13.1145Z" fill="white"/>
<path d="M55.7655 0.887098H58.5104V24.5001H57.525L42.7449 6.69358V24.113H40V0.5H40.9853L55.7655 18.3417V0.887098Z" fill="white"/>
<path d="M79.6644 16.371H66.116C66.4327 19.7494 69.0368 22.0016 72.4151 22.0016C74.3506 22.0016 76.1101 21.2274 77.6585 19.679L79.2421 21.5089C77.4474 23.374 75.0896 24.5001 72.3799 24.5001C67.2773 24.5001 63.3007 20.5939 63.3007 15.5617C63.3007 10.5998 67.1717 6.58801 72.0632 6.58801C76.4972 6.58801 79.8756 9.79037 79.8756 14.33C79.8756 14.9986 79.8052 15.6672 79.6644 16.371ZM66.2215 13.9781H77.0955C77.0603 10.9165 74.8433 9.05136 71.9928 9.05136C69.1424 9.05136 66.8198 11.022 66.2215 13.9781Z" fill="white"/>
<path d="M83.0177 21.157L84.7421 19.3623C86.396 21.0514 87.7333 22.0016 89.6688 22.0016C91.5339 22.0016 92.9415 21.0866 92.9415 19.5734C92.9415 18.201 92.0617 17.6731 89.9503 16.8285L88.2963 16.1247C85.4459 14.9634 84.0382 13.6614 84.0382 11.374C84.0382 8.38274 86.5368 6.58801 89.8095 6.58801C92.2025 6.58801 94.138 7.60854 95.5456 9.2977L93.8917 10.9869C92.7304 9.82556 91.2524 9.08655 89.6688 9.08655C87.9796 9.08655 86.8183 9.86075 86.8183 11.2332C86.8183 12.3241 87.5221 12.852 89.5984 13.7317L91.182 14.4004C94.3843 15.7728 95.7216 17.1101 95.7216 19.4678C95.7216 21.0514 95.1233 22.3183 93.962 23.1981C92.8008 24.0778 91.3931 24.5001 89.704 24.5001C86.8535 24.5001 84.5309 23.1277 83.0177 21.157Z" fill="white"/>
<path d="M109.977 21.8256V24.113C108.887 24.3594 107.936 24.5001 107.127 24.5001C103.573 24.5001 101.356 22.7054 101.356 18.94V9.40327H98.47V6.9751H101.356V2.29473H104.065V6.9751H109.414V9.40327H104.065V18.764C104.065 21.1922 105.332 22.0368 107.69 22.0368C108.359 22.0368 109.098 21.9664 109.977 21.8256Z" fill="white"/>
<path d="M139.04 13.3446V24.113H136.33V13.6965C136.33 10.9165 134.817 9.08655 132.283 9.08655C129.715 9.08655 127.885 11.022 127.885 13.4502V24.113H125.175V13.6965C125.175 10.9165 123.591 9.08655 121.093 9.08655C118.524 9.08655 116.729 10.9869 116.729 13.6965V24.113H114.019V6.9751H116.553V8.76983C117.785 7.3622 119.544 6.58801 121.656 6.58801C124.154 6.58801 125.949 7.67892 126.934 9.54403C128.201 7.7493 130.278 6.58801 132.811 6.58801C136.753 6.58801 139.04 9.26251 139.04 13.3446Z" fill="white"/>
<path d="M159.909 16.371H146.361C146.677 19.7494 149.281 22.0016 152.66 22.0016C154.595 22.0016 156.355 21.2274 157.903 19.679L159.487 21.5089C157.692 23.374 155.334 24.5001 152.625 24.5001C147.522 24.5001 143.545 20.5939 143.545 15.5617C143.545 10.5998 147.416 6.58801 152.308 6.58801C156.742 6.58801 160.12 9.79037 160.12 14.33C160.12 14.9986 160.05 15.6672 159.909 16.371ZM146.466 13.9781H157.34C157.305 10.9165 155.088 9.05136 152.237 9.05136C149.387 9.05136 147.064 11.022 146.466 13.9781Z" fill="white"/>
<path d="M179.063 13.3446V24.113H176.353V13.6614C176.353 10.9517 174.735 9.08655 172.095 9.08655C169.456 9.08655 167.591 10.9869 167.591 13.6614V24.113H164.881V6.9751H167.415V8.80503C168.682 7.39739 170.547 6.58801 172.693 6.58801C176.67 6.58801 179.063 9.2977 179.063 13.3446Z" fill="white"/>
<path d="M194.174 21.8256V24.113C193.083 24.3594 192.133 24.5001 191.324 24.5001C187.769 24.5001 185.552 22.7054 185.552 18.94V9.40327H182.667V6.9751H185.552V2.29473H188.262V6.9751H193.611V9.40327H188.262V18.764C188.262 21.1922 189.529 22.0368 191.887 22.0368C192.555 22.0368 193.294 21.9664 194.174 21.8256Z" fill="white"/>
</svg>
